<svg width="165" height="64" viewBox="0 0 165 64" fill="none" xmlns="http://www.w3.org/2000/svg">
  <g clip-path="url(#clip0_318_1733)">
    <path d="M82.5009 64C68.1712 64.0066 53.8913 62.3041 39.9607 58.9282C26.4781 55.65 13.4193 50.8107 1.04626 44.5072L0 43.9756V0H165V43.9756L163.952 44.5072C151.579 50.8105 138.521 55.6499 125.039 58.9282C111.109 62.304 96.8301 64.0065 82.5009 64Z" fill="white"></path>
    <path d="M82.501 54.9709C54.9545 55.0036 27.6366 49.9468 1.90869 40.0526V42.7962C26.1186 55.131 53.5014 62.0814 82.501 62.0814C110.501 62.1232 138.114 55.5153 163.091 42.7962V40.0526C137.364 49.9468 110.047 55.0036 82.501 54.9709Z" fill="#C00D1E"></path>
    <path d="M163.091 37.4005V1.91861H1.90869V37.4005C27.6822 47.0957 54.982 52.0459 82.501 52.0139C110.019 52.0457 137.319 47.0956 163.091 37.4005Z" fill="#001A72"></path>
    <path d="M145.629 28.3886C145.629 30.452 146.412 31.7799 149.435 31.7799C150.184 31.7721 150.931 31.718 151.674 31.618V29.2193C151.03 29.3137 150.381 29.3684 149.731 29.3831C148.734 29.3831 148.491 28.8935 148.491 28.1618V21.1352H151.674V18.7726H148.491V15.166H145.629V18.7726H143.336V21.1352H145.629V28.3886Z" fill="white"></path>
    <path d="M136.565 29.3831C133.354 29.3831 131.319 28.0494 131.319 28.0494L130.034 30.2424C131.378 31.0235 133.269 31.7761 136.457 31.7761C140.1 31.7761 142.801 30.311 142.801 27.5159C142.801 22.0611 133.135 24.9381 133.135 22.1164C133.135 21.4381 133.904 20.7827 136.035 20.7827C137.706 20.7721 139.35 21.2116 140.796 22.0554L142.028 19.9596C141.522 19.6491 139.484 18.424 136.074 18.424C132.665 18.424 130.354 19.7577 130.354 22.1945C130.354 27.7312 140.021 24.8809 140.021 27.676C140.021 28.7582 138.554 29.3831 136.565 29.3831Z" fill="white"></path>
    <path d="M69.8794 29.3831C66.6667 29.3831 64.631 28.0494 64.631 28.0494L63.3459 30.2424C64.6917 31.0235 66.5833 31.7761 69.7695 31.7761C73.4143 31.7761 76.1152 30.311 76.1152 27.5159C76.1152 22.0611 66.4487 24.9381 66.4487 22.1164C66.4487 21.4381 67.2182 20.7827 69.3487 20.7827C71.0203 20.7721 72.6643 21.2116 74.1099 22.0554L75.3419 19.9596C74.8358 19.6491 72.7983 18.424 69.3885 18.424C65.9787 18.424 63.6663 19.7577 63.6663 22.1945C63.6663 27.7312 73.3328 24.8809 73.3328 27.676C73.3328 28.7582 71.8752 29.3831 69.8794 29.3831Z" fill="white"></path>
    <path d="M38.9012 23.7397C36.2286 23.8731 32.5857 24.0922 32.5857 27.7008C32.5857 30.1776 34.1778 31.7704 37.8757 31.7704C40.8724 31.7704 42.3546 30.2462 42.3546 30.2462L42.4095 31.4141H45.029V22.4098C45.029 19.4262 42.5744 18.4202 39.2272 18.4202C35.6581 18.4202 33.3514 19.9558 33.3514 19.9558L34.5797 22.0516C35.9575 21.221 37.5334 20.7812 39.14 20.7789C40.9482 20.7789 42.3508 21.2114 42.3508 22.3507C42.3546 23.3586 41.6817 23.6025 38.9012 23.7397ZM42.3546 27.2454C42.3546 28.6286 40.6165 29.4974 38.2946 29.4974C36.2969 29.4974 35.3662 28.9258 35.3662 27.7827C35.3662 26.449 36.3784 26.1003 38.8595 25.9917C41.6684 25.8545 42.3546 25.2868 42.3546 25.2868V27.2454Z" fill="white"></path>
    <path d="M84.3282 23.7397C81.6557 23.8731 78.0127 24.0922 78.0127 27.7008C78.0127 30.1776 79.6048 31.7704 83.3028 31.7704C86.2994 31.7704 87.7816 30.2462 87.7816 30.2462L87.8365 31.4141H90.456V22.4098C90.456 19.4262 88.0014 18.4202 84.6542 18.4202C81.0851 18.4202 78.7784 19.9558 78.7784 19.9558L80.0067 22.0516C81.3845 21.221 82.9604 20.7812 84.567 20.7789C86.3752 20.7789 87.7778 21.2114 87.7778 22.3507C87.7816 23.3586 87.1087 23.6025 84.3282 23.7397ZM87.7816 27.2454C87.7816 28.6286 86.0435 29.4974 83.7216 29.4974C81.7239 29.4974 80.7932 28.9258 80.7932 27.7827C80.7932 26.449 81.8054 26.1003 84.2865 25.9917C87.0954 25.8545 87.7816 25.2868 87.7816 25.2868V27.2454Z" fill="white"></path>
    <path d="M121.539 23.7397C118.868 23.8731 115.223 24.0922 115.223 27.7008C115.223 30.1776 116.815 31.7704 120.515 31.7704C123.51 31.7704 124.994 30.2462 124.994 30.2462L125.047 31.4141H127.668V22.4098C127.668 19.4262 125.204 18.4202 121.867 18.4202C118.296 18.4202 115.991 19.9558 115.991 19.9558L117.219 22.0516C118.597 21.221 120.173 20.7812 121.779 20.7789C123.589 20.7789 125.002 21.2114 125.002 22.3507C124.994 23.3586 124.319 23.6025 121.539 23.7397ZM124.994 27.2454C124.994 28.6286 123.254 29.4974 120.932 29.4974C118.936 29.4974 118.006 28.9258 118.006 27.7827C118.006 26.449 119.016 26.1003 121.499 25.9917C124.308 25.8545 124.994 25.2868 124.994 25.2868V27.2454Z" fill="white"></path>
    <path d="M51.2364 23.3872C51.2364 21.7334 52.7338 20.8342 54.9192 20.8342C57.0041 20.8342 57.9518 21.4057 57.9518 23.3872V31.4179H60.8139V23.3872C60.8139 20.1845 59.1213 18.4202 55.5314 18.4202C52.8968 18.4202 51.5757 19.6072 51.28 19.9558H51.2327V18.7726H48.3706V31.4179H51.2327L51.2364 23.3872Z" fill="white"></path>
    <path d="M112.679 14.3791H109.817V31.4179H112.679V14.3791Z" fill="white"></path>
    <path d="M17.1931 23.7645H27.1004V31.4179H30.042V14.4858H27.1004V21.2705H17.1931V14.4858H14.2515V31.4179H17.1931V23.7645Z" fill="white"></path>
    <path d="M96.6653 30.2367H96.7127C97.0917 30.6539 98.3598 31.7704 100.932 31.7704C105.291 31.7704 107.274 28.7048 107.274 25.0677C107.274 21.4305 105.303 18.4202 100.932 18.4202C98.4678 18.4202 97.0045 19.6205 96.7127 19.9558H96.6653V18.7726H93.8032V37.4005H96.6653V30.2367ZM96.6653 23.17C96.6653 21.7582 98.3124 20.7827 100.498 20.7827C103.197 20.7827 104.241 22.5718 104.241 25.1229C104.241 27.6741 103.197 29.3831 100.498 29.3831C98.3124 29.3831 96.6653 28.621 96.6653 27.0206V23.17Z" fill="white"></path>
  </g>
  <defs>
    <clipPath id="clip0_318_1733">
      <rect width="165" height="64" fill="white"></rect>
    </clipPath>
  </defs>
</svg>