<svg width="21" height="21" viewBox="0 0 21 21" fill="none" xmlns="http://www.w3.org/2000/svg">
  <path d="M17.9397 3.05555C16.9722 2.08318 15.8198 1.31221 14.5497 0.787617C13.2797 0.263021 11.9173 -0.0047052 10.5422 6.25761e-05C4.78038 6.25761e-05 0.08442 4.67258 0.08442 10.4055C0.08442 12.243 0.569847 14.028 1.47739 15.603L0 21L5.54019 19.551C7.07039 20.3805 8.79044 20.8215 10.5422 20.8215C16.304 20.8215 21 16.149 21 10.416C21 7.63358 19.9131 5.01908 17.9397 3.05555ZM10.5422 19.0575C8.98038 19.0575 7.45026 18.6375 6.11007 17.85L5.79343 17.661L2.50101 18.522L3.37689 15.33L3.16583 15.0045C2.29812 13.6258 1.83738 12.0322 1.83618 10.4055C1.83618 5.63858 5.7407 1.75355 10.5317 1.75355C12.8532 1.75355 15.0377 2.65655 16.6734 4.29455C17.4833 5.0967 18.1251 6.05088 18.5617 7.10166C18.9982 8.15243 19.2208 9.27897 19.2166 10.416C19.2377 15.183 15.3332 19.0575 10.5422 19.0575ZM15.312 12.5895C15.0482 12.4635 13.7608 11.8335 13.5287 11.739C13.2859 11.655 13.1171 11.613 12.9377 11.865C12.7583 12.1275 12.2623 12.7155 12.1146 12.8835C11.9668 13.062 11.8085 13.083 11.5447 12.9465C11.2809 12.8205 10.4367 12.537 9.44471 11.655C8.66382 10.962 8.14676 10.1115 7.98848 9.849C7.8407 9.5865 7.96732 9.45 8.10452 9.3135C8.22057 9.198 8.36834 9.009 8.49497 8.862C8.62159 8.715 8.6744 8.5995 8.75879 8.4315C8.84318 8.253 8.80102 8.106 8.73771 7.98008C8.6744 7.85408 8.14676 6.57308 7.93567 6.04808C7.72466 5.54408 7.50299 5.60708 7.34471 5.59658H6.83822C6.65879 5.59658 6.38439 5.65958 6.14172 5.92208C5.90956 6.18458 5.23413 6.81458 5.23413 8.0955C5.23413 9.3765 6.17338 10.6155 6.3 10.7835C6.42662 10.962 8.14676 13.587 10.7638 14.7105C11.3864 14.9835 11.8718 15.141 12.2518 15.2565C12.8744 15.456 13.4442 15.4245 13.898 15.3615C14.4045 15.288 15.4492 14.7315 15.6603 14.1225C15.8819 13.5135 15.8819 12.999 15.808 12.8835C15.7341 12.768 15.5759 12.7155 15.312 12.5895Z" fill="#A7ADB3"></path>
</svg>